<svg xmlns="http://www.w3.org/2000/svg" viewBox="0 0 1000.13 739.9"><defs><style>.cls-1{fill:#111;}</style></defs><title>bildTerapiLogo</title><g id="Layer_2" data-name="Layer 2"><g id="Layer_1-2" data-name="Layer 1"><path d="M431.19,388.41c-5.24-13.83-2.91-31-.58-48.73C412.27,343.7,396,355,396,355c-19.5,13.67-35.23,30.72-18.63,40.85,0,0,16.59,10.46,58.81-2.9C433.81,391.95,431.77,390.5,431.19,388.41Z"/><path d="M626.55,524c2,.48,12.81-1.61,15.43-22.36,2.33-19.14-4.95-21.39-4.95-21.39-9.32,0-18.92,15-19.5,20.91C615.78,515.76,625.1,523.8,626.55,524Z"/><path d="M434.13,486a13.12,13.12,0,0,0,1.17-3.06c.58-2.25.58-4.34-2.62-4.5-5.24-.16-11.64,10.13-14.26,20.59A32,32,0,0,0,434.13,486Z"/><path d="M546.21,524.93c9,4,18.34-24.61,21.25-34.42.29-.64.29-1.29.58-1.93.29-3.06.87-9.65-3.49-10.13C553.78,477.48,535.15,520.1,546.21,524.93Z"/><path d="M649.12,623.72a13.12,13.12,0,0,0,1.17-3.06c.58-2.25.58-4.34-2.62-4.5C642.42,616,636,626.3,633.4,636.75A32,32,0,0,0,649.12,623.72Z"/><path d="M108.81,127.19V739.9h782.5V127.19ZM688.27,467.67c6.11.32,10.77,2.09,10.48,4s-5.53,3.22-11.65,2.9c-5.82-.32-10.48-2.09-10.19-4C677.21,468.79,682.45,467.51,688.27,467.67Zm-12.52,9.17c0-.64,1.17-1,2-1A41.07,41.07,0,0,1,690,477.8c3.79,1,5.82,3.22,5.53,5.63-1.46,8.36-8.15,39.41-.87,45.52a1.83,1.83,0,0,0,1.46.32l.29-.16s0-.16.29,0c.58.32.87,1.29-.29,2.09a9.19,9.19,0,0,1-5.53,1c-3.79-.16-5.82-1.61-8.15-3.54C672.55,519.94,670.22,498.23,675.75,476.84ZM597.13,360.91s9.9-31.52,40.76-30.56c0,0,2,.16,4.66.64.58-6.43,1.16-13.35,1.16-20.27,0-4.5-1.16-6.59-2-7.4-.29-.32,0-.64.58-.8a68.52,68.52,0,0,1,13.1-.48c8.15.64,12.52,4.5,11.65,9.81-2.62,18.5-7.28,38.44-8.44,49.7-.87,10.62,1.16,21.88,7.28,23.64.87.16,2,0,2.33-.8.29-.16.58-.16.58,0,.58.64,1.75,2.25,0,3.7-1.16,1.29-4.66,2.25-9,1.77-11.35-1.13-17.18-9.49-18.92-21.87-2.91,7.72-9.61,21.88-23.58,21.23C617.21,389.21,589.85,388.25,597.13,360.91Zm-29.4-53.72q-.44-.24,0-.48a32.2,32.2,0,0,1,13.68-1.61c8.15.8,12.52,4.83,11.94,9.81-2.62,17.85-7.28,37-8.44,47.77-1.17,10.29,1.16,21.07,7.28,22.68.87.16,2,0,2.33-.8h.58c.58.64,1.75,2.25,0,3.7-1.17,1.29-4.66,2.09-9,1.61-12.81-1.29-18.63-12.06-19.21-27.67-.58-9,2.62-28,3.49-48.09C570.34,309.44,568.6,307.83,567.72,307.19Zm13.42,179a2.09,2.09,0,0,1,1.16.32c4.66,1.45,7.28,4.18,6.7,7.08-2.91,13.35-4.66,31.52,4.37,34.74a2,2,0,0,0,2.33-.8c0-.16.29-.16.58,0a2.58,2.58,0,0,1,0,3.7c-1.17,1.29-4.95,2.25-9,1.77-11.06-1.13-17.76-9.33-20.09-21.07-2.91,8-9.61,20.91-23,20.43,0,0-27.37-1-20.09-28.31,0,0,9.9-31.53,40.76-30.56C564.84,473.46,584.05,474.1,581.14,486.17ZM549.68,324.56c6.11.32,10.77,2.09,10.48,4s-5.53,3.22-11.65,2.9c-5.82-.32-10.48-2.09-10.19-4C538.62,325.68,543.86,324.4,549.68,324.56Zm-12.52,9.17c0-.64,1.17-1,2-1a41.07,41.07,0,0,1,12.23,1.93c3.79,1,5.82,3.22,5.53,5.63-1.46,8.36-8.15,39.41-.87,45.52a1.83,1.83,0,0,0,1.46.32l.29-.16s0-.16.29,0c.58.32.87,1.29-.29,2.09a9.19,9.19,0,0,1-5.53,1c-3.79-.16-5.82-1.61-8.15-3.54C534,376.83,531.63,355.12,537.16,333.72Zm-182-38.28A33.16,33.16,0,0,1,366,293.51c19.21-.8,90.54-2.73,117,4.18,0,0,43.38,9,10.77,33.29,0,0,31.15-2.09,31.73,17.37.29,13-27.66,33.29-64.34,45.68,0,0-54.15,18.18-88.79,7.24-23.29-7.56-26.2-21.55-21.25-32.49C357,356.08,373,345.95,373,345.95c22.42-14.64,45.42-13.51,58.52-10.78.87-6.59,1.75-13.19,2-19.62.29-3.7-.58-5.79-1.46-6.92-.29-.48.29-1.29,1.16-1.29a70.24,70.24,0,0,1,10.77-.48c8.44.64,12.52,4.5,11.65,9.81q-2.62,12.06-4.37,22.2c10.19-4.34,38.72-17.85,38.72-29,0-12.06-87-11.42-144.69,4.18a3.53,3.53,0,0,1-3.49-1C339.2,307.83,342.11,300.27,355.21,295.44ZM304,436.14c0-.32.87-.48,1.46-.32,1.75.8,5.53,1.77,13.39,1.61,12.23-.32,24.75-.8,37-1.13a9.09,9.09,0,0,0-2-3.86c-.58-.48-.29-.8.58-1a65.32,65.32,0,0,1,14.26-1c6.11.32,10.48,2.25,13.1,5.31,24.75-.32,48.62.32,68.41,3.06,9.32,1.29,12.23,6.11,9,9.65a1.65,1.65,0,0,1-1.75.16c-5.82-3.06-29.4-3.22-74.24-1.93-7.28,55.17-10.19,89.75-4.66,96.18a3.4,3.4,0,0,0,3.2,1.45.52.52,0,0,0,.58-.48c.29-.16.87-.16.87.16.29,1-.58,2.25-2.33,2.9-1.75.8-4.95,1.29-9,.8a13.41,13.41,0,0,1-11.64-8c-10.48-24.13-4.08-60.48-3.49-92-11.35.48-23.58,1-37,1.45-9.61.16-16.59-2.25-17.18-6.92A9.61,9.61,0,0,1,304,436.14Zm123.73,93.45c10.48.48,19.5-5.15,20.67-27.83a1.56,1.56,0,0,1,1.75-.64c7,.8,9,3.7,9,6.75-1.75,21.88-21.25,24.77-31.73,24.77-36.1,0-31.15-28.63-31.15-28.63,0-4.66,6.41-31.2,35.81-30.56,0,0,14.56.48,9.61,13.19,0,0-4.66,13.19-24.16,17.69C417,509,414.63,529.11,427.73,529.59Zm38,155.09c-2,.8-4.95,1.29-9.32.8a13.42,13.42,0,0,1-11.65-8c-4.08-9.65-5.53-20.75-5.53-32.33A333,333,0,0,0,404,646.4c-3.49,14.31-15.43,34.74-55,38.6,0,0-40.47,4.67-50.36-21.07-9.32-23.16,12.52-45.68,47.16-46.32,9.32-.16,19.21,1.93,24.16,6.43.58.32,0,1-.87,1-7.28.16-34.35,2.25-46,25.74-12.23,24.93,12.81,31,25,29.59,0,0,30.86-3.86,35.52-31.36a247.53,247.53,0,0,0-24.45,5.63,1.4,1.4,0,0,1-1.75-.32c-2.33-3.7-1.17-8.85,6.4-12.71a28.47,28.47,0,0,1,11.35-2.73c2.33,0,5.53,0,9.32-.16.29-11.26,1.16-41.66,0-55.33,0-2.41-.58-4.5-2.33-6-.29-.48,0-1,.87-1,17.76-2.09,27.95,2.41,27.37,10.94-.58,16.41-3.79,41.18-4.95,51.15,10.77.16,22.71.32,33.77.8.29-17.53,2.62-36.35,2.33-54.53,0-5.15-1.46-7.72-2.62-9-.29-.48.29-1.29,1.17-1.45a95,95,0,0,1,13.39-.8c10.19.48,14.26,5.47,13.68,12.22-7.57,57.58-11.35,88.3-5.24,94.9,1.16,1.45,3.78,1.61,4.37,1.45.29,0,.58-.16.58-.32a1.05,1.05,0,0,1,1.16.16A3.45,3.45,0,0,1,465.72,684.68Zm-3.06-164.1c0-.16.29-.32.58-.48,14.27-5.31,14.27-36.19,14.27-36.19a7.25,7.25,0,0,1-5.53-1.29c-3.79-3.38,3.2-7.24,5.82-8.36a1,1,0,0,1,1.16.16c2.33,3.86,19.51,4.5,19.51,4.5,20.09,1.13,15.43,19.94,15.43,19.94-.87,9-1.75,22.2,3.2,27.5.58,1,2.33,1.13,2.91,1a1.73,1.73,0,0,0,.87-1c0-.16.29-.16.58,0,1.17.8.87,2.41-.29,3.38-2,1.61-5.53,2.57-8.44,2.73-11.64,1-16.3-4.34-16.3-4.34-6.11-5.31-4.08-18.5-.29-29.92,0,0,6.11-14.48-2.62-15.12a55.75,55.75,0,0,0-7.28.32c6.4,18.66-3.49,42.62-12.23,44.07S463,522.2,462.66,520.59ZM549,616.65c-3.49,10.29-20.09,35.55-7.86,48.9a4.41,4.41,0,0,0,3.2,1.45,1,1,0,0,0,1.16-1.13s.29-.16.29,0a1.93,1.93,0,0,1,1.17,1.61c0,1.77-1.75,3.06-4.95,3.38a18.56,18.56,0,0,1-16.3-6.76c-4.08-5-6.11-11.26-6.41-18.5-7.28,10-16.59,18-27.37,17.85-12.81-.32-11.35-14-11.35-14,0-4.5,3.49-31.69-4.66-35.87a.55.55,0,0,1,.29-1c2-1,6.7-2.25,14.26-1.45,10.77,1,10.77,8.52,10.48,10.45-.87,6-7.57,37.48-2.91,36.35,7.57-1.13,21.25-28.47,27.07-40.53,1.17-2.73,2.62-5.63,4.08-8.52,0-.16.58-.32,1.16-.32A47.85,47.85,0,0,1,544.61,611C548.1,612.3,549.85,614.56,549,616.65Zm26.2,53.4c-26.49-.32-25.33-12.55-25.33-12.55,1.16-7.08,9.61-9.17,14-9.81,1.17-.16,2.33.32,2,1-5.82,17.53,9.9,17.37,9.9,17.37,10.19-.48,9.61-8.52,9.61-8.52,0-5.79-7.86-11.26-7.86-11.26-3.49-2.41-6.4-4.34-8.44-6.11-11.06-10-6.4-19.46-6.4-19.46,3.78-9.49,18.63-9.49,18.63-9.49s18-.64,16.88,11.58c-.29,4-6.7,5.31-13.1,5.31,0,0,5.24-12.54-3.78-12.38-2.91,0-8.15,5.31-2.62,11.9,5.82,6.59,25,14.8,26.49,25.25C606,660.07,600.21,670.37,575.17,670ZM598,549.54c-.29-11.74,9.9-66.43-1.75-73.5q-.87-.48,0-1c1.75-1,5.82-2.9,13.68-1.61,8.44,1.29,9.32,7.72,9.32,10.78,4.66-5.47,11.65-9.81,22.13-9.17,21.25,1,23,17.69,20.67,28.63-1.75,8.2-9.32,28.47-30.28,26.54-8.15-.64-13.1-4-16-7.72-.58,13.67,0,26.86,4.08,31.85a1.09,1.09,0,0,1-.58,1.45,25.26,25.26,0,0,1-7.28,1.77C604.43,558.38,598.32,556.94,598,549.54Zm44.4,120.83c-36.1,0-31.15-28.63-31.15-28.63,0-4.66,6.41-31.2,35.81-30.56,0,0,14.56.48,9.61,13.19,0,0-4.66,13.19-24.16,17.69-.58,4.66-2.91,24.77,10.19,25.25,10.48.48,19.5-5.15,20.67-27.83a1.56,1.56,0,0,1,1.75-.64c7,.8,9,3.7,9,6.75C672.41,667.47,652.9,670.37,642.42,670.37ZM714,600.88a49.52,49.52,0,0,0-7-.64c-7.57,44.88-9.9,62.41-5.24,67.39a2.53,2.53,0,0,0,2,1c0-.16,0-.16.29-.16.58-.16,1.17.16,1.17.48-.29,1.61-3.2,2.73-6.7,2.9-10.77.32-13.1-6.76-13.1-6.76-6.11-13.19-2.62-43.11-1.75-64.66-13.68.32-28.24.8-35.52.8-16.88-.16-14.26-5.79-13.1-7.56a1.05,1.05,0,0,1,1.17-.16c5.53,2.09,34.93,2.25,44,2.25H684v-4.18a14.39,14.39,0,0,0-1.46-6.92c-.58-.48.29-1.13,1.16-1.29a103.79,103.79,0,0,1,12.81-.48c8.15.64,12.52,4.5,11.65,9.81-.29,1.45-.29,2.89-.58,4.34,6.41,1.13,7.28,2.73,7.28,3.54C714.91,600.72,714.33,600.88,714,600.88Z"/><path d="M619.25,381.82c6.4,2.89,14-11.1,18-22.52a98,98,0,0,0,3.49-12.06s2.62-11.42-3.2-11.9C626.82,334.37,608.19,377,619.25,381.82Z"/><path d="M455.94,344.5a2.94,2.94,0,0,1-2.62-.16l-2.62-1.93c-4.08,24.45-4.66,39.73-3.2,46.64,2.33-.8,4.37-1.77,6.7-2.57,0,0,53-22,46.58-41.5,0,0-1.75-5.47-10.77-7.72C483,335.65,471.66,336.62,455.94,344.5Z"/><polygon class="cls-1" points="1000.13 257.35 0 257.35 156.47 40.3 856.84 44.19 1000.13 257.35"/><rect x="691.78" width="46.25" height="81.88"/></g></g></svg>